<svg viewBox="0 0 1024 1024" width="128" height="128"
     version="1.1" xmlns="http://www.w3.org/2000/svg">
    <path d="M903.542857 256.685714L657.6 10.742857c-6.857143-6.857143-16.114286-10.742857-25.828571-10.742857H146.285714c-20.228571 0-36.571429 16.342857-36.571428 36.571429v950.857142c0 20.228571 16.342857 36.571429 36.571428 36.571429h731.428572c20.228571 0 36.571429-16.342857 36.571428-36.571429V282.628571c0-9.714286-3.885714-19.085714-10.742857-25.942857zM829.942857 299.428571H614.857143V84.342857L829.942857 299.428571z m2.057143 642.285715H192V82.285714h345.142857v246.857143a48 48 0 0 0 48 48h246.857143v564.571429z"/>
</svg>