<svg viewBox="0 0 1024 1024" width="128" height="128"
     version="1.1" xmlns="http://www.w3.org/2000/svg">
    <path d="M987.428571 434.285714H864V304.457143c0-20.228571-16.342857-36.571429-36.571429-36.571429H467.428571L333.371429 139.657143a9.314286 9.314286 0 0 0-6.285715-2.514286H36.571429c-20.228571 0-36.571429 16.342857-36.571429 36.571429v676.571428c0 20.228571 16.342857 36.571429 36.571429 36.571429h797.714285c14.857143 0 28.342857-9.028571 33.942857-22.857143l153.142858-379.428571c1.714286-4.342857 2.628571-9.028571 2.628571-13.714286 0-20.228571-16.342857-36.571429-36.571429-36.571429zM82.285714 219.428571h215.428572l136.685714 130.742858H781.714286V434.285714H198.857143c-14.857143 0-28.342857 9.028571-33.942857 22.857143L82.285714 661.942857V219.428571z m726.057143 585.142858H108.571429l118.057142-292.571429h699.885715L808.342857 804.571429z"/>
</svg>